<svg width="1219" height="206" viewBox="0 0 1219 206" fill="none" xmlns="http://www.w3.org/2000/svg">
<path d="M220.752 106.864C217.936 105.904 215.376 104.944 213.072 103.984C210.768 102.96 208.784 101.744 207.12 100.336C205.456 98.928 204.144 97.264 203.184 95.344C202.288 93.36 201.84 90.96 201.84 88.144C201.84 82.704 203.92 78.352 208.08 75.088C212.304 71.824 218.192 70.192 225.744 70.192C228.496 70.192 231.056 70.384 233.424 70.768C235.792 71.152 237.808 71.76 239.472 72.592C241.2 73.36 242.544 74.384 243.504 75.664C244.464 76.88 244.944 78.32 244.944 79.984C244.944 81.648 244.56 83.088 243.792 84.304C243.024 85.456 242.096 86.448 241.008 87.28C239.6 86.384 237.712 85.616 235.344 84.976C232.976 84.272 230.384 83.92 227.568 83.92C224.688 83.92 222.576 84.336 221.232 85.168C219.888 85.936 219.216 86.928 219.216 88.144C219.216 89.104 219.632 89.904 220.464 90.544C221.296 91.12 222.544 91.664 224.208 92.176L229.296 93.808C235.312 95.728 239.92 98.192 243.12 101.2C246.384 104.144 248.016 108.176 248.016 113.296C248.016 118.736 245.872 123.152 241.584 126.544C237.296 129.872 230.992 131.536 222.672 131.536C219.728 131.536 216.976 131.28 214.416 130.768C211.92 130.32 209.712 129.648 207.792 128.752C205.936 127.792 204.464 126.64 203.376 125.296C202.352 123.888 201.84 122.288 201.84 120.496C201.84 118.64 202.384 117.072 203.472 115.792C204.56 114.448 205.744 113.424 207.024 112.72C208.816 114.128 210.992 115.344 213.552 116.368C216.176 117.392 219.024 117.904 222.096 117.904C225.232 117.904 227.44 117.424 228.72 116.464C230 115.504 230.64 114.384 230.64 113.104C230.64 111.824 230.128 110.864 229.104 110.224C228.08 109.52 226.64 108.848 224.784 108.208L220.752 106.864ZM304.343 106.672C304.343 110.64 303.735 114.192 302.519 117.328C301.303 120.4 299.575 122.992 297.335 125.104C295.159 127.216 292.535 128.816 289.463 129.904C286.391 130.992 282.967 131.536 279.191 131.536C275.415 131.536 271.991 130.96 268.919 129.808C265.847 128.656 263.191 127.024 260.951 124.912C258.775 122.736 257.079 120.112 255.863 117.04C254.647 113.968 254.039 110.512 254.039 106.672C254.039 102.896 254.647 99.472 255.863 96.4C257.079 93.328 258.775 90.736 260.951 88.624C263.191 86.448 265.847 84.784 268.919 83.632C271.991 82.48 275.415 81.904 279.191 81.904C282.967 81.904 286.391 82.512 289.463 83.728C292.535 84.88 295.159 86.544 297.335 88.72C299.575 90.832 301.303 93.424 302.519 96.496C303.735 99.568 304.343 102.96 304.343 106.672ZM270.743 106.672C270.743 110.576 271.479 113.584 272.951 115.696C274.487 117.744 276.599 118.768 279.286 118.768C281.975 118.768 284.023 117.712 285.431 115.6C286.903 113.488 287.639 110.512 287.639 106.672C287.639 102.832 286.903 99.888 285.431 97.84C283.959 95.728 281.879 94.672 279.191 94.672C276.503 94.672 274.423 95.728 272.951 97.84C271.479 99.888 270.743 102.832 270.743 106.672ZM338.609 94.768C337.009 94.768 335.473 95.024 334.001 95.536C332.593 96.048 331.345 96.816 330.257 97.84C329.233 98.8 328.401 100.016 327.761 101.488C327.121 102.96 326.801 104.688 326.801 106.672C326.801 110.64 327.921 113.616 330.161 115.6C332.465 117.584 335.249 118.576 338.513 118.576C340.433 118.576 342.097 118.352 343.505 117.904C344.913 117.456 346.161 116.976 347.249 116.464C348.529 117.36 349.489 118.352 350.129 119.44C350.769 120.464 351.089 121.712 351.089 123.184C351.089 125.808 349.841 127.856 347.345 129.328C344.849 130.736 341.393 131.44 336.977 131.44C332.945 131.44 329.297 130.864 326.033 129.712C322.769 128.496 319.953 126.832 317.585 124.72C315.281 122.544 313.489 119.952 312.209 116.944C310.929 113.936 310.289 110.608 310.289 106.96C310.289 102.736 310.961 99.056 312.305 95.92C313.713 92.72 315.601 90.096 317.969 88.048C320.337 86 323.057 84.464 326.129 83.44C329.265 82.416 332.561 81.904 336.017 81.904C340.625 81.904 344.177 82.736 346.673 84.4C349.169 86.064 350.417 88.208 350.417 90.832C350.417 92.048 350.129 93.2 349.553 94.288C348.977 95.312 348.305 96.208 347.537 96.976C346.449 96.464 345.137 95.984 343.601 95.536C342.065 95.024 340.401 94.768 338.609 94.768ZM358.889 70.384C358.889 67.952 359.689 65.904 361.289 64.24C362.953 62.576 365.129 61.744 367.817 61.744C370.505 61.744 372.649 62.576 374.249 64.24C375.913 65.904 376.745 67.952 376.745 70.384C376.745 72.816 375.913 74.864 374.249 76.528C372.649 78.192 370.505 79.024 367.817 79.024C365.129 79.024 362.953 78.192 361.289 76.528C359.689 74.864 358.889 72.816 358.889 70.384ZM375.977 129.904C375.273 130.032 374.217 130.192 372.809 130.384C371.465 130.64 370.089 130.768 368.681 130.768C367.273 130.768 365.993 130.672 364.841 130.48C363.753 130.288 362.825 129.904 362.057 129.328C361.289 128.752 360.681 127.984 360.233 127.024C359.849 126 359.657 124.688 359.657 123.088V84.016C360.361 83.888 361.385 83.728 362.729 83.536C364.137 83.28 365.545 83.152 366.953 83.152C368.361 83.152 369.609 83.248 370.697 83.44C371.849 83.632 372.809 84.016 373.577 84.592C374.345 85.168 374.921 85.968 375.305 86.992C375.753 87.952 375.977 89.232 375.977 90.832V129.904ZM406.335 119.632C407.423 119.632 408.607 119.536 409.887 119.344C411.231 119.088 412.223 118.768 412.863 118.384V110.704L405.951 111.28C404.159 111.408 402.687 111.792 401.535 112.432C400.383 113.072 399.807 114.032 399.807 115.312C399.807 116.592 400.287 117.648 401.247 118.48C402.271 119.248 403.967 119.632 406.335 119.632ZM405.567 81.904C409.023 81.904 412.159 82.256 414.975 82.96C417.855 83.664 420.287 84.752 422.271 86.224C424.319 87.632 425.887 89.456 426.975 91.696C428.063 93.872 428.607 96.464 428.607 99.472V120.976C428.607 122.64 428.127 124.016 427.167 125.104C426.271 126.128 425.183 127.024 423.903 127.792C419.743 130.288 413.887 131.536 406.335 131.536C402.943 131.536 399.871 131.216 397.119 130.576C394.431 129.936 392.095 128.976 390.111 127.696C388.191 126.416 386.687 124.784 385.599 122.8C384.575 120.816 384.063 118.512 384.063 115.888C384.063 111.472 385.375 108.08 387.999 105.712C390.623 103.344 394.687 101.872 400.191 101.296L412.767 99.952V99.28C412.767 97.424 411.935 96.112 410.271 95.344C408.671 94.512 406.335 94.096 403.263 94.096C400.831 94.096 398.463 94.352 396.159 94.864C393.855 95.376 391.775 96.016 389.919 96.784C389.087 96.208 388.383 95.344 387.807 94.192C387.231 92.976 386.943 91.728 386.943 90.448C386.943 88.784 387.327 87.472 388.095 86.512C388.927 85.488 390.175 84.624 391.839 83.92C393.695 83.216 395.871 82.704 398.367 82.384C400.927 82.064 403.327 81.904 405.567 81.904ZM455.194 129.904C454.49 130.032 453.434 130.192 452.026 130.384C450.682 130.64 449.306 130.768 447.898 130.768C446.49 130.768 445.21 130.672 444.058 130.48C442.97 130.288 442.042 129.904 441.274 129.328C440.506 128.752 439.898 127.984 439.45 127.024C439.066 126 438.874 124.688 438.874 123.088V67.408C439.578 67.28 440.602 67.12 441.946 66.928C443.354 66.672 444.762 66.544 446.17 66.544C447.578 66.544 448.826 66.64 449.914 66.832C451.066 67.024 452.026 67.408 452.794 67.984C453.562 68.56 454.138 69.36 454.522 70.384C454.97 71.344 455.194 72.624 455.194 74.224V129.904ZM519.444 127.984C518.548 128.88 517.236 129.552 515.508 130C513.844 130.512 511.828 130.768 509.46 130.768C507.092 130.768 504.852 130.416 502.74 129.712C500.628 129.008 498.9 127.312 497.556 124.624L488.052 105.232C487.092 103.248 486.228 101.392 485.46 99.664C484.692 97.872 483.86 95.824 482.964 93.52L482.388 93.616C482.644 97.072 482.772 100.592 482.772 104.176C482.836 107.76 482.868 111.28 482.868 114.736V129.616C482.164 129.808 481.076 130 479.604 130.192C478.196 130.384 476.788 130.48 475.38 130.48C473.972 130.48 472.724 130.384 471.636 130.192C470.548 130 469.652 129.616 468.948 129.04C468.244 128.464 467.7 127.696 467.316 126.736C466.932 125.712 466.74 124.4 466.74 122.8V74.8C467.636 73.52 469.012 72.56 470.868 71.92C472.724 71.28 474.708 70.96 476.82 70.96C479.188 70.96 481.428 71.344 483.54 72.112C485.716 72.816 487.444 74.48 488.724 77.104L498.324 96.496C499.284 98.48 500.148 100.368 500.916 102.16C501.684 103.888 502.516 105.904 503.412 108.208L503.892 108.112C503.636 104.656 503.476 101.2 503.412 97.744C503.348 94.288 503.316 90.832 503.316 87.376V71.824C504.02 71.632 505.076 71.44 506.484 71.248C507.956 71.056 509.396 70.96 510.804 70.96C513.62 70.96 515.764 71.472 517.236 72.496C518.708 73.456 519.444 75.504 519.444 78.64V127.984ZM555.32 131.536C551.544 131.536 548.024 131.024 544.76 130C541.56 128.912 538.744 127.312 536.312 125.2C533.944 123.088 532.056 120.432 530.648 117.232C529.304 114.032 528.632 110.288 528.632 106C528.632 101.776 529.304 98.16 530.648 95.152C532.056 92.08 533.88 89.584 536.12 87.664C538.36 85.68 540.92 84.24 543.8 83.344C546.68 82.384 549.624 81.904 552.632 81.904C556.024 81.904 559.096 82.416 561.848 83.44C564.664 84.464 567.064 85.872 569.048 87.664C571.096 89.456 572.664 91.6 573.752 94.096C574.904 96.592 575.48 99.312 575.48 102.256C575.48 104.432 574.872 106.096 573.656 107.248C572.44 108.4 570.744 109.136 568.568 109.456L544.856 113.008C545.56 115.12 547 116.72 549.176 117.808C551.352 118.832 553.848 119.344 556.664 119.344C559.288 119.344 561.752 119.024 564.056 118.384C566.424 117.68 568.344 116.88 569.816 115.984C570.84 116.624 571.704 117.52 572.408 118.672C573.112 119.824 573.464 121.04 573.464 122.32C573.464 125.2 572.12 127.344 569.432 128.752C567.384 129.84 565.08 130.576 562.52 130.96C559.96 131.344 557.56 131.536 555.32 131.536ZM552.632 93.808C551.096 93.808 549.752 94.064 548.6 94.576C547.512 95.088 546.616 95.76 545.912 96.592C545.208 97.36 544.664 98.256 544.28 99.28C543.96 100.24 543.768 101.232 543.704 102.256L560.12 99.568C559.928 98.288 559.224 97.008 558.008 95.728C556.792 94.448 555 93.808 552.632 93.808ZM599.656 113.968C599.656 115.632 600.168 116.816 601.192 117.52C602.28 118.224 603.784 118.576 605.704 118.576C606.664 118.576 607.656 118.512 608.68 118.384C609.704 118.192 610.6 117.968 611.368 117.712C611.944 118.416 612.424 119.216 612.808 120.112C613.256 120.944 613.48 121.968 613.48 123.184C613.48 125.616 612.552 127.6 610.696 129.136C608.904 130.672 605.704 131.44 601.096 131.44C595.464 131.44 591.112 130.16 588.04 127.6C585.032 125.04 583.528 120.88 583.528 115.12V74.032C584.232 73.84 585.224 73.648 586.504 73.456C587.848 73.2 589.256 73.072 590.728 73.072C593.544 73.072 595.72 73.584 597.256 74.608C598.856 75.568 599.656 77.648 599.656 80.848V86.992H612.232C612.616 87.696 612.968 88.592 613.288 89.68C613.672 90.704 613.864 91.856 613.864 93.136C613.864 95.376 613.352 97.008 612.328 98.032C611.368 98.992 610.056 99.472 608.392 99.472H599.656V113.968ZM648.365 128.56C647.469 129.328 646.253 129.936 644.717 130.384C643.181 130.896 641.357 131.152 639.245 131.152C636.621 131.152 634.349 130.768 632.429 130C630.509 129.296 629.229 128.272 628.589 126.928C627.885 125.392 627.053 122.96 626.093 119.632C625.197 116.304 624.301 112.656 623.405 108.688C622.509 104.72 621.645 100.688 620.813 96.592C620.045 92.496 619.437 88.88 618.989 85.744C619.885 84.848 621.069 84.08 622.541 83.44C624.077 82.736 625.741 82.384 627.533 82.384C629.773 82.384 631.597 82.896 633.005 83.92C634.477 84.88 635.373 86.576 635.693 89.008C636.333 93.872 636.877 97.904 637.325 101.104C637.773 104.24 638.125 106.832 638.381 108.88C638.701 110.864 638.925 112.4 639.053 113.488C639.245 114.512 639.405 115.344 639.533 115.984H639.917C640.109 114.96 640.429 113.488 640.877 111.568C641.389 109.584 641.965 107.344 642.605 104.848C643.245 102.352 643.917 99.664 644.621 96.784C645.325 93.84 646.029 90.928 646.733 88.048C648.013 87.344 649.261 86.8 650.477 86.416C651.757 86.032 653.325 85.84 655.181 85.84C657.421 85.84 659.341 86.192 660.941 86.896C662.541 87.6 663.565 88.688 664.013 90.16C664.781 92.976 665.517 95.728 666.221 98.416C666.925 101.04 667.565 103.504 668.141 105.808C668.717 108.048 669.229 110.064 669.677 111.856C670.125 113.584 670.445 114.96 670.637 115.984H671.117C671.821 111.056 672.493 105.936 673.133 100.624C673.837 95.312 674.477 89.904 675.053 84.4C676.205 83.696 677.421 83.184 678.701 82.864C679.981 82.544 681.261 82.384 682.541 82.384C684.781 82.384 686.637 82.864 688.109 83.824C689.581 84.784 690.317 86.448 690.317 88.816C690.317 89.84 690.157 91.376 689.837 93.424C689.517 95.472 689.101 97.776 688.589 100.336C688.077 102.896 687.469 105.584 686.765 108.4C686.125 111.216 685.453 113.936 684.749 116.56C684.109 119.184 683.469 121.552 682.829 123.664C682.253 125.776 681.741 127.408 681.293 128.56C680.397 129.328 679.021 129.936 677.165 130.384C675.309 130.896 673.325 131.152 671.213 131.152C665.837 131.152 662.669 129.808 661.709 127.12C661.325 125.968 660.845 124.528 660.269 122.8C659.693 121.008 659.085 119.056 658.445 116.944C657.805 114.832 657.197 112.656 656.621 110.416C656.045 108.112 655.565 105.904 655.181 103.792C654.733 106.032 654.189 108.368 653.549 110.8C652.909 113.168 652.237 115.504 651.533 117.808C650.893 120.048 650.285 122.128 649.709 124.048C649.133 125.904 648.685 127.408 648.365 128.56ZM745.999 106.672C745.999 110.64 745.391 114.192 744.175 117.328C742.959 120.4 741.231 122.992 738.991 125.104C736.815 127.216 734.191 128.816 731.119 129.904C728.047 130.992 724.623 131.536 720.847 131.536C717.071 131.536 713.647 130.96 710.575 129.808C707.503 128.656 704.847 127.024 702.607 124.912C700.431 122.736 698.735 120.112 697.519 117.04C696.303 113.968 695.695 110.512 695.695 106.672C695.695 102.896 696.303 99.472 697.519 96.4C698.735 93.328 700.431 90.736 702.607 88.624C704.847 86.448 707.503 84.784 710.575 83.632C713.647 82.48 717.071 81.904 720.847 81.904C724.623 81.904 728.047 82.512 731.119 83.728C734.191 84.88 736.815 86.544 738.991 88.72C741.231 90.832 742.959 93.424 744.175 96.496C745.391 99.568 745.999 102.96 745.999 106.672ZM712.399 106.672C712.399 110.576 713.135 113.584 714.607 115.696C716.143 117.744 718.255 118.768 720.943 118.768C723.631 118.768 725.679 117.712 727.087 115.6C728.559 113.488 729.295 110.512 729.295 106.672C729.295 102.832 728.559 99.888 727.087 97.84C725.615 95.728 723.535 94.672 720.847 94.672C718.159 94.672 716.079 95.728 714.607 97.84C713.135 99.888 712.399 102.832 712.399 106.672ZM770.281 129.904C769.641 130.096 768.617 130.288 767.209 130.48C765.865 130.672 764.457 130.768 762.985 130.768C761.577 130.768 760.297 130.672 759.145 130.48C758.057 130.288 757.129 129.904 756.361 129.328C755.593 128.752 754.985 127.984 754.537 127.024C754.153 126 753.961 124.688 753.961 123.088V94.288C753.961 92.816 754.217 91.568 754.729 90.544C755.305 89.456 756.105 88.496 757.129 87.664C758.153 86.832 759.401 86.096 760.873 85.456C762.409 84.752 764.041 84.144 765.769 83.632C767.497 83.12 769.289 82.736 771.145 82.48C773.001 82.16 774.857 82 776.713 82C779.785 82 782.217 82.608 784.009 83.824C785.801 84.976 786.697 86.896 786.697 89.584C786.697 90.48 786.569 91.376 786.313 92.272C786.057 93.104 785.737 93.872 785.353 94.576C784.009 94.576 782.633 94.64 781.225 94.768C779.817 94.896 778.441 95.088 777.097 95.344C775.753 95.6 774.473 95.888 773.257 96.208C772.105 96.464 771.113 96.784 770.281 97.168V129.904ZM839.03 121.552C838.71 124.56 837.814 126.864 836.342 128.464C834.934 130.064 832.854 130.864 830.102 130.864C828.054 130.864 826.23 130.384 824.63 129.424C823.03 128.4 821.302 126.704 819.446 124.336L809.942 112.432V129.904C809.238 130.032 808.182 130.192 806.774 130.384C805.43 130.64 804.054 130.768 802.646 130.768C801.238 130.768 799.958 130.672 798.806 130.48C797.718 130.288 796.79 129.904 796.022 129.328C795.254 128.752 794.646 127.984 794.198 127.024C793.814 126 793.622 124.688 793.622 123.088V67.504C794.326 67.312 795.35 67.12 796.694 66.928C798.102 66.672 799.51 66.544 800.918 66.544C802.326 66.544 803.574 66.64 804.662 66.832C805.814 67.024 806.774 67.408 807.542 67.984C808.31 68.56 808.886 69.36 809.27 70.384C809.718 71.344 809.942 72.624 809.942 74.224V99.568L826.454 82.672C829.782 82.672 832.438 83.408 834.422 84.88C836.47 86.352 837.494 88.208 837.494 90.448C837.494 91.408 837.334 92.304 837.014 93.136C836.694 93.904 836.182 94.704 835.478 95.536C834.838 96.368 833.974 97.264 832.886 98.224C831.862 99.12 830.646 100.176 829.238 101.392L823.67 106.192L839.03 121.552ZM888.824 71.824C889.272 72.528 889.656 73.488 889.976 74.704C890.36 75.856 890.552 77.072 890.552 78.352C890.552 80.848 890.008 82.64 888.92 83.728C887.896 84.752 886.488 85.264 884.696 85.264H864.536V96.112H885.56C886.072 96.816 886.488 97.744 886.808 98.896C887.192 100.048 887.384 101.264 887.384 102.544C887.384 104.976 886.84 106.736 885.752 107.824C884.728 108.848 883.32 109.36 881.528 109.36H864.728V129.616C864.024 129.808 862.904 130 861.368 130.192C859.896 130.384 858.424 130.48 856.952 130.48C855.48 130.48 854.168 130.352 853.016 130.096C851.928 129.904 851 129.52 850.232 128.944C849.464 128.368 848.888 127.568 848.504 126.544C848.12 125.52 847.928 124.176 847.928 122.512V80.752C847.928 78 848.728 75.824 850.328 74.224C851.928 72.624 854.104 71.824 856.856 71.824H888.824ZM915.491 119.632C916.579 119.632 917.763 119.536 919.043 119.344C920.387 119.088 921.379 118.768 922.019 118.384V110.704L915.107 111.28C913.315 111.408 911.843 111.792 910.691 112.432C909.539 113.072 908.963 114.032 908.963 115.312C908.963 116.592 909.443 117.648 910.403 118.48C911.427 119.248 913.123 119.632 915.491 119.632ZM914.723 81.904C918.179 81.904 921.315 82.256 924.131 82.96C927.011 83.664 929.443 84.752 931.427 86.224C933.475 87.632 935.043 89.456 936.131 91.696C937.219 93.872 937.763 96.464 937.763 99.472V120.976C937.763 122.64 937.283 124.016 936.323 125.104C935.427 126.128 934.339 127.024 933.059 127.792C928.899 130.288 923.043 131.536 915.491 131.536C912.099 131.536 909.027 131.216 906.275 130.576C903.587 129.936 901.251 128.976 899.267 127.696C897.347 126.416 895.843 124.784 894.755 122.8C893.731 120.816 893.219 118.512 893.219 115.888C893.219 111.472 894.531 108.08 897.155 105.712C899.779 103.344 903.843 101.872 909.347 101.296L921.923 99.952V99.28C921.923 97.424 921.091 96.112 919.427 95.344C917.827 94.512 915.491 94.096 912.419 94.096C909.987 94.096 907.619 94.352 905.315 94.864C903.011 95.376 900.931 96.016 899.075 96.784C898.243 96.208 897.539 95.344 896.963 94.192C896.387 92.976 896.099 91.728 896.099 90.448C896.099 88.784 896.483 87.472 897.251 86.512C898.083 85.488 899.331 84.624 900.995 83.92C902.851 83.216 905.027 82.704 907.523 82.384C910.083 82.064 912.483 81.904 914.723 81.904ZM987.102 116.08C987.102 120.944 985.278 124.752 981.63 127.504C977.982 130.256 972.606 131.632 965.502 131.632C962.814 131.632 960.318 131.44 958.014 131.056C955.71 130.672 953.726 130.096 952.062 129.328C950.462 128.496 949.182 127.472 948.222 126.256C947.326 125.04 946.878 123.6 946.878 121.936C946.878 120.4 947.198 119.12 947.838 118.096C948.478 117.008 949.246 116.112 950.142 115.408C951.998 116.432 954.11 117.36 956.478 118.192C958.91 118.96 961.694 119.344 964.83 119.344C966.814 119.344 968.318 119.056 969.342 118.48C970.43 117.904 970.974 117.136 970.974 116.176C970.974 115.28 970.59 114.576 969.822 114.064C969.054 113.552 967.774 113.136 965.982 112.816L963.102 112.24C957.534 111.152 953.374 109.456 950.622 107.152C947.934 104.784 946.59 101.424 946.59 97.072C946.59 94.704 947.102 92.56 948.126 90.64C949.15 88.72 950.59 87.12 952.446 85.84C954.302 84.56 956.51 83.568 959.07 82.864C961.694 82.16 964.574 81.808 967.71 81.808C970.078 81.808 972.286 82 974.334 82.384C976.446 82.704 978.27 83.216 979.806 83.92C981.342 84.624 982.558 85.552 983.454 86.704C984.35 87.792 984.798 89.104 984.798 90.64C984.798 92.112 984.51 93.392 983.934 94.48C983.422 95.504 982.75 96.368 981.918 97.072C981.406 96.752 980.638 96.432 979.614 96.112C978.59 95.728 977.47 95.408 976.254 95.152C975.038 94.832 973.79 94.576 972.51 94.384C971.294 94.192 970.174 94.096 969.15 94.096C967.038 94.096 965.406 94.352 964.254 94.864C963.102 95.312 962.526 96.048 962.526 97.072C962.526 97.776 962.846 98.352 963.486 98.8C964.126 99.248 965.342 99.664 967.134 100.048L970.11 100.72C976.254 102.128 980.606 104.08 983.166 106.576C985.79 109.008 987.102 112.176 987.102 116.08ZM1011.31 113.968C1011.31 115.632 1011.82 116.816 1012.85 117.52C1013.94 118.224 1015.44 118.576 1017.36 118.576C1018.32 118.576 1019.31 118.512 1020.34 118.384C1021.36 118.192 1022.26 117.968 1023.02 117.712C1023.6 118.416 1024.08 119.216 1024.46 120.112C1024.91 120.944 1025.14 121.968 1025.14 123.184C1025.14 125.616 1024.21 127.6 1022.35 129.136C1020.56 130.672 1017.36 131.44 1012.75 131.44C1007.12 131.44 1002.77 130.16 999.696 127.6C996.688 125.04 995.184 120.88 995.184 115.12V74.032C995.888 73.84 996.88 73.648 998.16 73.456C999.504 73.2 1000.91 73.072 1002.38 73.072C1005.2 73.072 1007.38 73.584 1008.91 74.608C1010.51 75.568 1011.31 77.648 1011.31 80.848V86.992H1023.89C1024.27 87.696 1024.62 88.592 1024.94 89.68C1025.33 90.704 1025.52 91.856 1025.52 93.136C1025.52 95.376 1025.01 97.008 1023.98 98.032C1023.02 98.992 1021.71 99.472 1020.05 99.472H1011.31V113.968ZM1047.06 73.552C1048.15 72.912 1049.78 72.304 1051.96 71.728C1054.2 71.152 1056.44 70.864 1058.68 70.864C1061.88 70.864 1064.69 71.344 1067.13 72.304C1069.62 73.2 1071.22 74.64 1071.93 76.624C1073.08 79.952 1074.33 83.824 1075.67 88.24C1077.01 92.656 1078.36 97.232 1079.7 101.968C1081.05 106.64 1082.36 111.28 1083.64 115.888C1084.92 120.432 1086.04 124.464 1087 127.984C1086.23 128.88 1085.08 129.584 1083.54 130.096C1082.01 130.672 1080.18 130.96 1078.07 130.96C1076.53 130.96 1075.22 130.832 1074.13 130.576C1073.11 130.32 1072.25 129.936 1071.54 129.424C1070.9 128.912 1070.36 128.24 1069.91 127.408C1069.53 126.576 1069.17 125.616 1068.85 124.528L1067.13 117.904H1049.75C1049.24 119.824 1048.73 121.808 1048.21 123.856C1047.7 125.904 1047.19 127.888 1046.68 129.808C1045.78 130.128 1044.82 130.384 1043.8 130.576C1042.84 130.832 1041.65 130.96 1040.25 130.96C1036.98 130.96 1034.55 130.416 1032.95 129.328C1031.41 128.176 1030.65 126.608 1030.65 124.624C1030.65 123.728 1030.77 122.832 1031.03 121.936C1031.29 121.04 1031.57 119.984 1031.89 118.768C1032.34 117.04 1032.95 114.896 1033.72 112.336C1034.55 109.776 1035.45 107.024 1036.41 104.08C1037.37 101.072 1038.39 98 1039.48 94.864C1040.57 91.728 1041.59 88.784 1042.55 86.032C1043.51 83.216 1044.37 80.72 1045.14 78.544C1045.97 76.368 1046.61 74.704 1047.06 73.552ZM1058.58 85.936C1057.69 88.624 1056.66 91.632 1055.51 94.96C1054.42 98.224 1053.43 101.552 1052.53 104.944H1064.44C1063.54 101.488 1062.61 98.128 1061.65 94.864C1060.76 91.536 1059.93 88.56 1059.16 85.936H1058.58ZM1116.66 98.8C1119.35 98.8 1121.39 98.192 1122.8 96.976C1124.27 95.696 1125.01 93.776 1125.01 91.216C1125.01 88.784 1124.24 86.928 1122.71 85.648C1121.23 84.304 1119.06 83.632 1116.18 83.632C1115.15 83.632 1114.29 83.664 1113.59 83.728C1112.95 83.728 1112.27 83.792 1111.57 83.92V98.8H1116.66ZM1111.67 129.616C1110.96 129.808 1109.84 130 1108.31 130.192C1106.83 130.384 1105.36 130.48 1103.89 130.48C1102.42 130.48 1101.11 130.352 1099.95 130.096C1098.87 129.904 1097.94 129.52 1097.17 128.944C1096.4 128.368 1095.83 127.568 1095.44 126.544C1095.06 125.52 1094.87 124.176 1094.87 122.512V77.296C1094.87 75.952 1095.22 74.928 1095.92 74.224C1096.69 73.456 1097.71 72.848 1098.99 72.4C1101.17 71.632 1103.63 71.088 1106.39 70.768C1109.2 70.384 1112.02 70.192 1114.83 70.192C1123.67 70.192 1130.42 72.08 1135.09 75.856C1139.76 79.632 1142.1 84.752 1142.1 91.216C1142.1 94.352 1141.59 97.2 1140.56 99.76C1139.6 102.256 1138.13 104.432 1136.15 106.288C1134.23 108.08 1131.76 109.488 1128.75 110.512C1125.81 111.472 1122.39 111.952 1118.48 111.952H1111.67V129.616ZM1167.45 129.616C1166.74 129.808 1165.62 130 1164.09 130.192C1162.61 130.384 1161.14 130.48 1159.67 130.48C1158.2 130.48 1156.89 130.352 1155.73 130.096C1154.65 129.904 1153.72 129.52 1152.95 128.944C1152.18 128.368 1151.61 127.568 1151.22 126.544C1150.84 125.52 1150.65 124.176 1150.65 122.512V71.824C1151.35 71.696 1152.47 71.536 1154.01 71.344C1155.54 71.088 1157.01 70.96 1158.42 70.96C1159.89 70.96 1161.17 71.088 1162.26 71.344C1163.41 71.536 1164.37 71.92 1165.14 72.496C1165.91 73.072 1166.49 73.872 1166.87 74.896C1167.25 75.92 1167.45 77.264 1167.45 78.928V129.616Z" fill="url(#paint0_linear_623_2)"/>
<g clip-path="url(#clip0_623_2)">
<path d="M137.431 150.516L71.8924 99.3216L75.5602 94.626L141.106 145.82L137.431 150.516Z" fill="#434A54"/>
<path d="M142.223 148.535L136.314 147.797L148.228 52.4634L154.145 53.2027L142.223 148.535Z" fill="#434A54"/>
<path d="M75.2024 99.562L72.2527 94.3862L149.712 50.244L152.662 55.422L75.2024 99.562Z" fill="#434A54"/>
<path d="M109.477 100.5C109.477 120.243 93.4723 136.25 73.7274 136.25C53.9824 136.25 37.9774 120.242 37.9774 100.5C37.9774 80.755 53.9824 64.75 73.7274 64.75C93.4723 64.75 109.477 80.755 109.477 100.5Z" fill="#ED5564"/>
<path d="M175.023 52.8343C175.023 65.9961 164.349 76.666 151.187 76.666C138.025 76.666 127.35 65.9961 127.35 52.8343C127.35 39.6699 138.025 29 151.187 29C164.349 29 175.023 39.6699 175.023 52.8343Z" fill="#A0D468"/>
<path d="M163.1 148.168C163.1 161.33 152.435 172 139.273 172C126.102 172 115.437 161.33 115.437 148.168C115.437 135.002 126.102 124.332 139.273 124.332C152.435 124.332 163.1 135.002 163.1 148.168Z" fill="#EC87C0"/>
<path d="M100.21 124.515V122.831C100.21 120.103 98.4561 117.681 95.8463 116.817L95.6498 116.76C92.7825 115.992 91.8117 115.251 90.5352 114.766C86.0098 113.042 84.8314 111.799 84.5304 111.214C84.5195 111.192 84.5108 111.17 84.5021 111.148L84.4627 105.89L73.7271 105.767L62.9895 105.89L62.9523 111.148C62.9437 111.17 62.935 111.192 62.9238 111.214C62.6228 111.799 61.4446 113.042 56.9168 114.766C55.6425 115.25 54.6714 115.992 51.8042 116.76L51.6077 116.817C48.9981 117.681 47.2436 120.103 47.2436 122.831V124.515C53.7831 131.725 63.2268 136.25 73.7265 136.25C84.2263 136.25 93.6708 131.725 100.21 124.515Z" fill="#48CFAD"/>
<path d="M88.6261 95.7127C88.6261 105.392 79.3962 114.299 73.7274 114.299C68.0585 114.299 58.8287 105.392 58.8287 95.7127C58.8287 86.0334 65.499 79.6465 73.7274 79.6465C81.9558 79.6465 88.6261 86.0334 88.6261 95.7127Z" fill="#EAC6BB"/>
<path d="M168.905 68.7714V67.2025C168.905 65.3764 167.726 63.7572 165.981 63.1789L165.85 63.1417C163.938 62.6266 163.283 62.1315 162.428 61.8065C159.4 60.6521 158.614 59.8208 158.413 59.4281C158.405 59.4149 158.405 59.3995 158.396 59.3845L158.37 55.867L151.187 55.7863L144.004 55.867L143.978 59.3845C143.969 59.3998 143.969 59.4149 143.96 59.4281C143.759 59.8208 142.965 60.6521 139.936 61.8065C139.09 62.1315 138.435 62.6268 136.524 63.1417L136.384 63.1789C134.638 63.7569 133.469 65.3761 133.469 67.2025V68.7714C137.833 73.6177 144.152 76.6658 151.187 76.6658C158.222 76.6658 164.54 73.6177 168.905 68.7714Z" fill="#AC92EB"/>
<path d="M161.154 51.6667C161.154 58.1428 154.983 64.1018 151.187 64.1018C147.39 64.1018 141.219 58.1428 141.219 51.6667C141.219 45.1904 145.679 40.916 151.187 40.916C156.694 40.916 161.154 45.1904 161.154 51.6667Z" fill="#EAC6BB"/>
<path d="M156.991 164.106V162.539C156.991 160.711 155.812 159.091 154.067 158.511L153.936 158.476C152.015 157.961 151.369 157.464 150.514 157.141C147.486 155.984 146.7 155.155 146.499 154.763C146.491 154.749 146.482 154.732 146.473 154.719L146.456 151.202L139.273 151.119L132.09 151.202L132.064 154.719C132.055 154.732 132.046 154.749 132.046 154.763C131.837 155.155 131.051 155.984 128.023 157.141C127.167 157.464 126.521 157.962 124.601 158.476L124.47 158.511C122.724 159.091 121.555 160.711 121.555 162.539V164.106C125.91 168.954 132.238 172 139.273 172C146.308 172 152.627 168.954 156.991 164.106Z" fill="#FFCE54"/>
<path d="M149.24 146.998C149.24 153.475 143.061 159.436 139.273 159.436C135.476 159.436 129.306 153.475 129.306 146.998C129.306 140.522 133.766 136.25 139.273 136.25C144.772 136.25 149.24 140.522 149.24 146.998Z" fill="#EAC6BB"/>
</g>
<defs>
<linearGradient id="paint0_linear_623_2" x1="692" y1="91.5" x2="692.076" y2="130" gradientUnits="userSpaceOnUse">
<stop stop-color="#ED5564"/>
<stop offset="1" stop-color="#FF7785"/>
</linearGradient>
<clipPath id="clip0_623_2">
<rect width="143" height="143" fill="white" transform="translate(35 29)"/>
</clipPath>
</defs>
</svg>
